<svg width="26" height="26" viewBox="0 0 26 26" fill="none" xmlns="http://www.w3.org/2000/svg">
<path d="M14.5063 11.6797C14.5829 12.0307 14.665 12.3604 14.7573 12.6689C15.0649 13.6967 15.4915 14.5561 16.1675 15.2383C16.9887 16.0669 18.0869 16.5345 19.4878 16.8467C18.0869 17.1589 16.9887 17.6265 16.1675 18.4551C15.4915 19.1372 15.0649 19.9968 14.7573 21.0244C14.6612 21.3454 14.5757 21.6895 14.4966 22.0566C14.4159 21.6947 14.3298 21.356 14.2329 21.04C13.9207 20.0216 13.4923 19.1745 12.8179 18.501C12.1429 17.8269 11.2978 17.4029 10.2856 17.0977C10.0113 17.0149 9.72016 16.9398 9.41162 16.8701C10.8641 16.558 11.9989 16.0892 12.8423 15.2393C13.5188 14.5575 13.9458 13.6979 14.2544 12.6699C14.3471 12.3611 14.4295 12.031 14.5063 11.6797ZM22.4438 16.3975H22.4409C22.4432 16.3972 22.4455 16.3967 22.4478 16.3965L22.4438 16.3975ZM7.11572 8.14941C7.22866 8.36262 7.37007 8.5646 7.55322 8.74609C7.7655 8.95637 8.00471 9.11164 8.2583 9.23145C8.00949 9.35115 7.77427 9.5031 7.56494 9.70605C7.39381 9.872 7.25892 10.0549 7.14893 10.248C7.03689 10.0399 6.89814 9.84279 6.71826 9.66504C6.498 9.44747 6.2481 9.28806 5.98389 9.16504C6.2358 9.04772 6.47578 8.89902 6.68896 8.69727C6.86512 8.5305 7.00269 8.34533 7.11572 8.14941ZM12.436 3.11523C12.4701 3.15099 12.505 3.18479 12.5405 3.2168C12.4998 3.25211 12.4602 3.28996 12.4214 3.33008C12.4094 3.34246 12.3977 3.35562 12.3862 3.36816C12.3762 3.35742 12.3673 3.34557 12.3569 3.33496C12.3179 3.29501 12.2777 3.2578 12.2368 3.22266C12.2754 3.18824 12.3133 3.15209 12.3501 3.11328C12.3649 3.0976 12.378 3.08039 12.3921 3.06445C12.4068 3.08109 12.4205 3.09889 12.436 3.11523Z" stroke="#525252" stroke-width="2"/>
</svg>
