<svg width="17" height="17" viewBox="0 0 17 17" fill="none" xmlns="http://www.w3.org/2000/svg">
<path d="M10.6474 4.81838C10.7891 5.12026 11.072 5.33164 11.4016 5.38201L14.6905 5.88447C15.4951 6.00739 15.8237 6.98876 15.2553 7.57135L12.8135 10.074C12.5918 10.3012 12.4912 10.6201 12.5423 10.9333L13.1101 14.4147C13.2444 15.2386 12.37 15.8547 11.6394 15.4509L8.79052 13.8764C8.48947 13.71 8.12404 13.71 7.82301 13.8764L4.97518 15.4507C4.24463 15.8545 3.37007 15.2384 3.50443 14.4145L4.07219 10.9334C4.12328 10.6201 4.0226 10.3011 3.8009 10.074L1.35864 7.57143C0.790106 6.98887 1.11864 6.00737 1.92331 5.88446L5.21275 5.38201C5.54247 5.33165 5.82537 5.1202 5.96705 4.81825L7.40162 1.76078C7.76146 0.993865 8.85222 0.993786 9.21216 1.76065L10.6474 4.81838Z" fill="#F4A316"/>
</svg>
